<svg xmlns="http://www.w3.org/2000/svg" viewBox="0 0 229 278.91"><defs><style>.cls-1{fill:#327508;}</style></defs><title>trackmeet-logo-green</title><g id="Layer_2" data-name="Layer 2"><g id="Capa_1" data-name="Capa 1"><path class="cls-1" d="M170.75,115H58.25a24.5,24.5,0,0,0,0,49h112.5a24.5,24.5,0,1,0,0-49Zm0,45H58.25a20.5,20.5,0,0,1,0-41h112.5a20.5,20.5,0,1,1,0,41Z"/><path class="cls-1" d="M131.75,103.7h-6a13.82,13.82,0,0,0,.52,4h6.45A7.67,7.67,0,0,1,131.75,103.7Zm-29.19,67.5H96.11a7.67,7.67,0,0,1,1,4h6A14.17,14.17,0,0,0,102.56,171.2Zm-44.31,0a31.75,31.75,0,0,1,0-63.5H82.7l-3-4H58.25a35.75,35.75,0,0,0,0,71.5H79.74l3-4Zm112.5-67.5H149.28l-3.14,4h24.61a31.75,31.75,0,1,1,0,63.5H146.14l3.14,4h21.47a35.75,35.75,0,1,0,0-71.5ZM96.11,171.2a7.67,7.67,0,0,1,1,4h34.68a7.67,7.67,0,0,1,1-4Zm35.64-67.5H97.07a7.67,7.67,0,0,1-1,4h36.6A7.67,7.67,0,0,1,131.75,103.7Zm-29.19,67.5H96.11a7.67,7.67,0,0,1,1,4h6A14.17,14.17,0,0,0,102.56,171.2Zm0,0H96.11a7.67,7.67,0,0,1,1,4h6A14.17,14.17,0,0,0,102.56,171.2Zm29.19-67.5h-6a13.82,13.82,0,0,0,.52,4h6.45A7.67,7.67,0,0,1,131.75,103.7Z"/><path class="cls-1" d="M90.42,92.45l3,4h42.05l3-4Zm45,90h-42l-3,4h48Zm35.31-90H158.1l-3.14,4h15.79a43,43,0,1,1,0,86H155l3.14,4h12.65a47,47,0,1,0,0-94Zm-112.5,90a43,43,0,0,1,0-86H74.37l-3-4H58.25a47,47,0,0,0,0,94H71.4l3-4Z"/><path class="cls-1" d="M58.25,193.7a54.25,54.25,0,0,1,0-108.5H66a12.64,12.64,0,0,1-2-4H57.87a58.24,58.24,0,0,0,0,116.48H64a12.64,12.64,0,0,1,2-4Zm113-112.49h-6a7.49,7.49,0,0,1-1.44,4l0,0h7a54.25,54.25,0,1,1,0,108.5h-7l0,0a7.49,7.49,0,0,1,1.44,4h6a58.24,58.24,0,0,0,0-116.48ZM85.05,193.7l-3,4h64.65l-3-4Zm-3-112.5,3,4h58.73l3-4Z"/><path class="cls-1" d="M170.52,76.26,159,45a13.64,13.64,0,0,0-8.22-8.47l-12.6-4.29c-4.1-9.19-12.84-15.1-23.72-15.1a25.28,25.28,0,0,0-23.72,15.1L78,36.55A13.55,13.55,0,0,0,69.9,44.9L58.27,76.34a10.49,10.49,0,0,0-.4,4.87,14.62,14.62,0,0,0,1.23,4,20.74,20.74,0,0,0,2.2,3.69l2.64,3.56,3,4,5.37,7.25,3,4,3.24,4.38a13.78,13.78,0,0,0,9.78,5.47c.4,0,.79,0,1.19,0A13.61,13.61,0,0,0,97.52,115l0,0a13.61,13.61,0,0,0,5-7.22,14.17,14.17,0,0,0,.52-4,13.61,13.61,0,0,0-2.25-7.25c-.14-.2-.28-.41-.43-.61l-2.51-3.39L92.52,85.2l-3-4-2.1-2.84,2.42-7.22a3,3,0,0,0-5.69-1.91L80.77,79.42l1.32,1.78,3,4,5.37,7.25,3,4,2.19,3a7.53,7.53,0,0,1,1.49,4.29,7.67,7.67,0,0,1-1,4A7.8,7.8,0,0,1,94,110.1a7.65,7.65,0,0,1-10.69-1.59l-.6-.81-3-4-5.37-7.25-3-4-5.28-7.13A.83.83,0,0,1,66,85.2a12.64,12.64,0,0,1-2-4,5,5,0,0,1-.07-2.86L75.56,46.89A7.55,7.55,0,0,1,80,42.2l8.58-2.92a31.89,31.89,0,0,0-.44,5.34c0,17,12.27,31.94,26.25,31.94s26.25-14.93,26.25-31.94a32.07,32.07,0,0,0-.44-5.34l8.49,2.89A7.68,7.68,0,0,1,153.29,47l11.57,31.27a7.87,7.87,0,0,1,.38,3,7.49,7.49,0,0,1-1.44,4l0,0-5.68,7.25-3.14,4-5.68,7.25-3.14,4-.63.81a7.61,7.61,0,0,1-10.68,1.59,7.8,7.8,0,0,1-2.12-2.4,7.68,7.68,0,0,1,.53-8.28l2.2-3,3-4,5.38-7.25,3-4,1.31-1.77-3.42-10.19a3,3,0,1,0-5.69,1.9l2.42,7.23-2.1,2.83-3,4-5.37,7.25-2.51,3.39c-.15.2-.29.41-.43.61a13.61,13.61,0,0,0-2.25,7.25,13.82,13.82,0,0,0,.52,4,13.53,13.53,0,0,0,5,7.22l0,0a13.64,13.64,0,0,0,8.08,2.65c.39,0,.79,0,1.19,0a13.7,13.7,0,0,0,6.91-2.6,12.87,12.87,0,0,0,2.81-2.8l3.49-4.45,3.13-4,5.68-7.25,3.14-4,2.86-3.65a13.72,13.72,0,0,0,2.66-7.59A14.09,14.09,0,0,0,170.52,76.26Zm-56.11-5.7c-10.6,0-20.25-12.37-20.25-25.94,0-12.45,8.52-21.49,20.25-21.49s20.25,9,20.25,21.49C134.66,58.19,125,70.56,114.41,70.56Z"/><path class="cls-1" d="M159,35.57l-.46,0A3,3,0,0,1,156,32.12L158.92,13a3,3,0,0,0-.56-2.39,5.57,5.57,0,0,0-3.85-2.06,322,322,0,0,0-80.06,0,5.61,5.61,0,0,0-3.85,2.06A2.94,2.94,0,0,0,70,12.85l3,19.27a3,3,0,1,1-5.93.9L64.12,13.86A8.83,8.83,0,0,1,65.76,7,11.53,11.53,0,0,1,73.7,2.55a327.44,327.44,0,0,1,81.57,0A11.55,11.55,0,0,1,163.21,7,8.9,8.9,0,0,1,164.83,14L161.91,33A3,3,0,0,1,159,35.57Z"/><path class="cls-1" d="M170.48,193.7a13.37,13.37,0,0,0-1.9-3.6l-2.86-3.65-3.14-4-5.68-7.25-3.13-4-3.49-4.45a12.87,12.87,0,0,0-2.81-2.8,13.7,13.7,0,0,0-6.91-2.6c-.4,0-.8,0-1.19,0a13.64,13.64,0,0,0-8.08,2.65l0,0a13.53,13.53,0,0,0-5,7.22,13.82,13.82,0,0,0-.52,4,13.61,13.61,0,0,0,2.25,7.25c.14.2.28.41.43.61l2.51,3.39,5.37,7.25,3,4,2.1,2.83-2.42,7.23a3,3,0,1,0,5.69,1.9l3.42-10.19-1.31-1.77-3-4-5.38-7.25-3-4-2.2-3a7.68,7.68,0,0,1-.53-8.28,7.8,7.8,0,0,1,2.12-2.4,7.61,7.61,0,0,1,10.68,1.59l.63.81,3.14,4,5.68,7.25,3.14,4,5.68,7.25,0,0a7.49,7.49,0,0,1,1.44,4,7.87,7.87,0,0,1-.38,3l-11.57,31.27a7.68,7.68,0,0,1-4.58,4.81l-8.49,2.89a32.07,32.07,0,0,0,.44-5.34c0-17-12.27-31.94-26.25-31.94s-26.25,14.93-26.25,31.94a31.89,31.89,0,0,0,.44,5.34L80,236.7A7.55,7.55,0,0,1,75.56,232L63.93,200.56A5,5,0,0,1,64,197.7a12.64,12.64,0,0,1,2-4l.08-.12,5.28-7.13,3-4,5.37-7.25,3-4,.6-.81A7.65,7.65,0,0,1,94,168.8a7.8,7.8,0,0,1,2.12,2.4,7.67,7.67,0,0,1,1,4,7.53,7.53,0,0,1-1.49,4.29l-2.19,3-3,4-5.37,7.25-3,4-1.32,1.78,3.41,10.19a3,3,0,1,0,5.69-1.91l-2.42-7.22,2.1-2.84,3-4,5.37-7.25,2.51-3.39c.15-.2.29-.41.43-.61a13.61,13.61,0,0,0,2.25-7.25,14.17,14.17,0,0,0-.52-4,13.61,13.61,0,0,0-5-7.22l0,0a13.61,13.61,0,0,0-8.07-2.65c-.4,0-.79,0-1.19,0a13.78,13.78,0,0,0-9.78,5.47l-3.24,4.38-3,4-5.37,7.25-3,4L61.3,190a20.74,20.74,0,0,0-2.2,3.69,14.62,14.62,0,0,0-1.23,4,10.49,10.49,0,0,0,.4,4.87L69.9,234A13.55,13.55,0,0,0,78,242.35l12.7,4.32a25.28,25.28,0,0,0,23.72,15.1c10.88,0,19.62-5.91,23.72-15.1l12.6-4.29a13.64,13.64,0,0,0,8.22-8.47l11.57-31.27a14.09,14.09,0,0,0,.72-4.95A13.5,13.5,0,0,0,170.48,193.7Zm-56.07,62.07c-11.73,0-20.25-9-20.25-21.49,0-13.57,9.65-25.94,20.25-25.94s20.25,12.37,20.25,25.94C134.66,246.73,126.14,255.77,114.41,255.77Z"/><path class="cls-1" d="M159,243.33a3.73,3.73,0,0,0-.46,0,3,3,0,0,0-2.51,3.42L158.92,266a3,3,0,0,1-.56,2.39,5.57,5.57,0,0,1-3.85,2.06,322,322,0,0,1-80.06,0,5.61,5.61,0,0,1-3.85-2.06,3,3,0,0,1-.57-2.3l3-19.26a3,3,0,1,0-5.93-.91l-2.93,19.17a8.8,8.8,0,0,0,1.64,6.83,11.57,11.57,0,0,0,7.94,4.48,328.39,328.39,0,0,0,81.57,0,11.6,11.6,0,0,0,7.94-4.48,8.88,8.88,0,0,0,1.62-6.93l-2.92-19.07A3,3,0,0,0,159,243.33Z"/></g></g></svg>